<?xml version="1.0" standalone="no"?>
<!DOCTYPE svg PUBLIC "-//W3C//DTD SVG 20010904//EN"
 "http://www.w3.org/TR/2001/REC-SVG-20010904/DTD/svg10.dtd">
<svg version="1.0" xmlns="http://www.w3.org/2000/svg"
 width="500.000000pt" height="500.000000pt" viewBox="0 0 500.000000 500.000000"
 preserveAspectRatio="xMidYMid meet">

<g transform="translate(0.000000,500.000000) scale(0.100000,-0.100000)"
fill="#000000" stroke="none">
<path d="M2395 4956 c-147 -36 -246 -140 -290 -303 l-16 -58 135 -874 c74
-481 140 -879 145 -884 7 -7 -19 -42 -74 -103 -488 -540 -820 -1226 -969
-1999 -35 -187 -76 -541 -76 -666 l0 -29 1250 0 1250 0 0 29 c0 125 -41 479
-76 666 -149 773 -481 1459 -969 1999 -55 61 -81 96 -74 103 5 5 71 403 145
884 l135 874 -16 58 c-64 237 -269 360 -500 303z m175 -198 c52 -26 86 -72 95
-127 21 -125 -93 -236 -207 -201 -53 15 -105 69 -114 116 -10 54 1 132 23 162
23 32 97 72 133 72 14 0 46 -10 70 -22z"/>
</g>
</svg>
